<mxfile host="Electron" modified="2023-10-09T16:04:16.404Z" agent="Mozilla/5.0 (Windows NT 10.0; Win64; x64) AppleWebKit/537.36 (KHTML, like Gecko) draw.io/22.0.2 Chrome/114.0.5735.289 Electron/25.8.4 Safari/537.36" etag="cRVGs7hFUp3pv0P52bz1" version="22.0.2" type="device">
  <diagram name="ページ1" id="gV5EMgTUOLZqTu5XpO8b">
    <mxGraphModel dx="2715" dy="1569" grid="1" gridSize="10" guides="1" tooltips="1" connect="1" arrows="1" fold="1" page="1" pageScale="1" pageWidth="827" pageHeight="1169" math="0" shadow="0">
      <root>
        <mxCell id="0" />
        <mxCell id="1" parent="0" />
        <mxCell id="IkgcLRmB3uLy0v5GrvIl-4" value="Frameworks&amp;Drivers" style="" parent="0" />
        <mxCell id="IkgcLRmB3uLy0v5GrvIl-61" style="edgeStyle=orthogonalEdgeStyle;rounded=0;orthogonalLoop=1;jettySize=auto;html=1;exitX=0;exitY=0.5;exitDx=0;exitDy=0;entryX=0;entryY=0.5;entryDx=0;entryDy=0;" edge="1" parent="IkgcLRmB3uLy0v5GrvIl-4" source="IkgcLRmB3uLy0v5GrvIl-11" target="IkgcLRmB3uLy0v5GrvIl-47">
          <mxGeometry relative="1" as="geometry" />
        </mxCell>
        <mxCell id="IkgcLRmB3uLy0v5GrvIl-11" value="Frameworks&amp;amp;Drivers" style="ellipse;whiteSpace=wrap;html=1;aspect=fixed;fillColor=#dae8fc;strokeColor=#6c8ebf;opacity=50;verticalAlign=top;fontSize=20;" vertex="1" parent="IkgcLRmB3uLy0v5GrvIl-4">
          <mxGeometry x="80" y="80" width="1640" height="1640" as="geometry" />
        </mxCell>
        <mxCell id="IkgcLRmB3uLy0v5GrvIl-36" value="PostgreSQL" style="rounded=0;whiteSpace=wrap;html=1;" vertex="1" parent="IkgcLRmB3uLy0v5GrvIl-4">
          <mxGeometry x="860.25" y="120" width="79.5" height="80" as="geometry" />
        </mxCell>
        <mxCell id="IkgcLRmB3uLy0v5GrvIl-47" value="Django" style="rounded=0;whiteSpace=wrap;html=1;" vertex="1" parent="IkgcLRmB3uLy0v5GrvIl-4">
          <mxGeometry x="120" y="870" width="120" height="60" as="geometry" />
        </mxCell>
        <mxCell id="IkgcLRmB3uLy0v5GrvIl-5" value="InterfaceAdapters" parent="0" />
        <mxCell id="IkgcLRmB3uLy0v5GrvIl-12" value="Interface Adapters" style="ellipse;whiteSpace=wrap;html=1;aspect=fixed;fillColor=#d5e8d4;strokeColor=#82b366;opacity=50;verticalAlign=top;fontSize=20;" vertex="1" parent="IkgcLRmB3uLy0v5GrvIl-5">
          <mxGeometry x="280" y="280" width="1240" height="1240" as="geometry" />
        </mxCell>
        <mxCell id="IkgcLRmB3uLy0v5GrvIl-25" value="Django&lt;br&gt;serializer.py" style="rounded=0;whiteSpace=wrap;html=1;" vertex="1" parent="IkgcLRmB3uLy0v5GrvIl-5">
          <mxGeometry x="520" y="280" width="120" height="40" as="geometry" />
        </mxCell>
        <mxCell id="IkgcLRmB3uLy0v5GrvIl-43" style="edgeStyle=orthogonalEdgeStyle;rounded=0;orthogonalLoop=1;jettySize=auto;html=1;exitX=0.5;exitY=0;exitDx=0;exitDy=0;" edge="1" parent="IkgcLRmB3uLy0v5GrvIl-5" source="IkgcLRmB3uLy0v5GrvIl-42" target="IkgcLRmB3uLy0v5GrvIl-25">
          <mxGeometry relative="1" as="geometry" />
        </mxCell>
        <mxCell id="IkgcLRmB3uLy0v5GrvIl-42" value="GATEWAY&lt;br&gt;&lt;br&gt;&amp;lt;&amp;lt;UserRepository&amp;gt;&amp;gt;&lt;br&gt;&lt;br&gt;&lt;div style=&quot;text-align: left;&quot;&gt;&lt;span style=&quot;background-color: initial;&quot;&gt;FindByUserId&lt;/span&gt;&lt;/div&gt;&lt;div style=&quot;text-align: left;&quot;&gt;&lt;span style=&quot;background-color: initial;&quot;&gt;FIndByUserName&lt;/span&gt;&lt;/div&gt;&lt;div style=&quot;text-align: left;&quot;&gt;&lt;span style=&quot;background-color: initial;&quot;&gt;FindByEmail&lt;/span&gt;&lt;/div&gt;" style="rounded=0;whiteSpace=wrap;html=1;" vertex="1" parent="IkgcLRmB3uLy0v5GrvIl-5">
          <mxGeometry x="520" y="440" width="120" height="120" as="geometry" />
        </mxCell>
        <mxCell id="IkgcLRmB3uLy0v5GrvIl-45" value="CONTROLLERS&lt;br&gt;&lt;br&gt;django.view.py" style="rounded=0;whiteSpace=wrap;html=1;" vertex="1" parent="IkgcLRmB3uLy0v5GrvIl-5">
          <mxGeometry x="320" y="870" width="120" height="60" as="geometry" />
        </mxCell>
        <mxCell id="IkgcLRmB3uLy0v5GrvIl-60" style="edgeStyle=orthogonalEdgeStyle;rounded=0;orthogonalLoop=1;jettySize=auto;html=1;exitX=1;exitY=0.5;exitDx=0;exitDy=0;entryX=0;entryY=0.5;entryDx=0;entryDy=0;" edge="1" parent="IkgcLRmB3uLy0v5GrvIl-5" source="IkgcLRmB3uLy0v5GrvIl-47" target="IkgcLRmB3uLy0v5GrvIl-45">
          <mxGeometry relative="1" as="geometry" />
        </mxCell>
        <mxCell id="IkgcLRmB3uLy0v5GrvIl-7" value="ApplicationBusinessRules" parent="0" />
        <mxCell id="IkgcLRmB3uLy0v5GrvIl-14" value="Application Business Rules" style="ellipse;whiteSpace=wrap;html=1;aspect=fixed;fillColor=#f8cecc;strokeColor=#b85450;opacity=40;verticalAlign=top;fontSize=20;" vertex="1" parent="IkgcLRmB3uLy0v5GrvIl-7">
          <mxGeometry x="480" y="480" width="840" height="840" as="geometry" />
        </mxCell>
        <mxCell id="IkgcLRmB3uLy0v5GrvIl-64" style="edgeStyle=orthogonalEdgeStyle;rounded=0;orthogonalLoop=1;jettySize=auto;html=1;exitX=0.5;exitY=0;exitDx=0;exitDy=0;entryX=0.5;entryY=1;entryDx=0;entryDy=0;" edge="1" parent="IkgcLRmB3uLy0v5GrvIl-7" source="IkgcLRmB3uLy0v5GrvIl-52" target="IkgcLRmB3uLy0v5GrvIl-42">
          <mxGeometry relative="1" as="geometry" />
        </mxCell>
        <mxCell id="IkgcLRmB3uLy0v5GrvIl-52" value="USECASE&lt;br&gt;&lt;br&gt;&amp;lt;&amp;lt;UserUseCase&amp;gt;&amp;gt;&lt;br&gt;&lt;br&gt;&lt;div style=&quot;text-align: left;&quot;&gt;GetUser&lt;/div&gt;&lt;div style=&quot;text-align: left;&quot;&gt;GetUserAll&lt;/div&gt;&lt;div style=&quot;text-align: left;&quot;&gt;CreateUser&lt;/div&gt;&lt;div style=&quot;text-align: left;&quot;&gt;UpdateUser&lt;/div&gt;&lt;div style=&quot;text-align: left;&quot;&gt;DeleteUser&lt;/div&gt;" style="rounded=0;whiteSpace=wrap;html=1;" vertex="1" parent="IkgcLRmB3uLy0v5GrvIl-7">
          <mxGeometry x="520" y="825" width="120" height="150" as="geometry" />
        </mxCell>
        <mxCell id="IkgcLRmB3uLy0v5GrvIl-59" style="edgeStyle=orthogonalEdgeStyle;rounded=0;orthogonalLoop=1;jettySize=auto;html=1;exitX=1;exitY=0.5;exitDx=0;exitDy=0;entryX=0;entryY=0.5;entryDx=0;entryDy=0;" edge="1" parent="IkgcLRmB3uLy0v5GrvIl-7" source="IkgcLRmB3uLy0v5GrvIl-45" target="IkgcLRmB3uLy0v5GrvIl-52">
          <mxGeometry relative="1" as="geometry" />
        </mxCell>
        <mxCell id="IkgcLRmB3uLy0v5GrvIl-65" style="edgeStyle=orthogonalEdgeStyle;rounded=0;orthogonalLoop=1;jettySize=auto;html=1;exitX=0.5;exitY=0;exitDx=0;exitDy=0;entryX=0.5;entryY=1;entryDx=0;entryDy=0;" edge="1" parent="IkgcLRmB3uLy0v5GrvIl-7" source="IkgcLRmB3uLy0v5GrvIl-25" target="IkgcLRmB3uLy0v5GrvIl-29">
          <mxGeometry relative="1" as="geometry" />
        </mxCell>
        <mxCell id="IkgcLRmB3uLy0v5GrvIl-8" value="EnterpriseBusinessRules" parent="0" />
        <mxCell id="IkgcLRmB3uLy0v5GrvIl-16" value="Enterprise Business Rules" style="ellipse;whiteSpace=wrap;html=1;aspect=fixed;fillColor=#fff2cc;strokeColor=#d6b656;opacity=40;verticalAlign=top;fontSize=20;" vertex="1" parent="IkgcLRmB3uLy0v5GrvIl-8">
          <mxGeometry x="680" y="679" width="441" height="441" as="geometry" />
        </mxCell>
        <mxCell id="IkgcLRmB3uLy0v5GrvIl-62" style="edgeStyle=orthogonalEdgeStyle;rounded=0;orthogonalLoop=1;jettySize=auto;html=1;exitX=0;exitY=0.25;exitDx=0;exitDy=0;entryX=1;entryY=0.25;entryDx=0;entryDy=0;" edge="1" parent="IkgcLRmB3uLy0v5GrvIl-8" source="IkgcLRmB3uLy0v5GrvIl-28" target="IkgcLRmB3uLy0v5GrvIl-52">
          <mxGeometry relative="1" as="geometry" />
        </mxCell>
        <mxCell id="IkgcLRmB3uLy0v5GrvIl-28" value="Model.py&lt;br&gt;&lt;br&gt;※Djangoの場合、ORMの中に組み込まれ、ORMのIFとしてDictが採用されているため作らない。" style="rounded=0;whiteSpace=wrap;html=1;" vertex="1" parent="IkgcLRmB3uLy0v5GrvIl-8">
          <mxGeometry x="827" y="840" width="160.5" height="120" as="geometry" />
        </mxCell>
        <mxCell id="IkgcLRmB3uLy0v5GrvIl-35" style="edgeStyle=orthogonalEdgeStyle;rounded=0;orthogonalLoop=1;jettySize=auto;html=1;exitX=0.5;exitY=0;exitDx=0;exitDy=0;entryX=0;entryY=0.5;entryDx=0;entryDy=0;" edge="1" parent="IkgcLRmB3uLy0v5GrvIl-8" source="IkgcLRmB3uLy0v5GrvIl-29" target="IkgcLRmB3uLy0v5GrvIl-36">
          <mxGeometry relative="1" as="geometry">
            <mxPoint x="860.75" y="160" as="targetPoint" />
          </mxGeometry>
        </mxCell>
        <mxCell id="IkgcLRmB3uLy0v5GrvIl-29" value="django.db.models.Model&lt;br&gt;(ORM)" style="rounded=0;whiteSpace=wrap;html=1;" vertex="1" parent="IkgcLRmB3uLy0v5GrvIl-8">
          <mxGeometry x="510" y="200" width="140" height="40" as="geometry" />
        </mxCell>
        <mxCell id="IkgcLRmB3uLy0v5GrvIl-58" style="edgeStyle=orthogonalEdgeStyle;rounded=0;orthogonalLoop=1;jettySize=auto;html=1;exitX=1;exitY=0.75;exitDx=0;exitDy=0;entryX=0;entryY=0.75;entryDx=0;entryDy=0;" edge="1" parent="IkgcLRmB3uLy0v5GrvIl-8" source="IkgcLRmB3uLy0v5GrvIl-52" target="IkgcLRmB3uLy0v5GrvIl-28">
          <mxGeometry relative="1" as="geometry" />
        </mxCell>
      </root>
    </mxGraphModel>
  </diagram>
</mxfile>
